<svg width="105" height="127" viewBox="0 0 105 127" fill="none" xmlns="http://www.w3.org/2000/svg">
<path d="M52.326 0L89.326 37C109.761 57.4346 109.761 90.5656 89.326 111C68.8915 131.435 35.7605 131.435 15.3259 111C-5.10863 90.5656 -5.10865 57.4346 15.3259 37.0001L52.326 0Z" fill="#151515"/>
<path d="M29.2525 76.0559C29.9745 81.9674 32.7724 87.0667 36.8338 90.722C37.4204 91.2635 38.9096 92.3916 38.9998 92.4368C42.8356 95.1895 47.1226 96.6335 51.4096 96.9043C61.4727 97.536 71.3554 91.5793 75.0558 80.749C77.7182 72.9422 75.6424 66.5794 71.1749 62.7887C69.7309 61.5703 67.6099 61.0739 65.7597 60.4422C65.6695 60.397 65.5792 60.3519 65.489 60.3068C64.767 60.036 64.1803 59.6299 63.6388 59.1335C63.6388 59.1335 63.5034 58.9981 63.3229 58.8176C62.8265 58.2761 61.8337 57.1479 61.2922 56.5162C59.2615 53.8086 56.7796 51.6877 53.8013 50.7851C53.2146 50.6046 52.5828 50.4241 51.9511 50.379C48.2958 50.0631 44.054 51.5523 43.6027 51.7779C39.406 53.6281 35.9312 56.3808 33.2688 60.2617C33.0883 60.4873 31.2381 63.24 30.7417 64.5487C29.3428 68.0685 28.7561 71.9945 29.2525 76.0559Z" fill="url(#paint0_linear_2004_167)"/>
<path d="M23.4763 102.906C31.5539 110.984 42.1586 115.045 52.7633 115.045C63.3679 115.045 73.9726 110.984 82.0503 102.906C98.2506 86.7058 98.2506 60.4874 82.0503 44.3321L72.8896 35.1715C74.7849 44.1516 70.543 53.2671 65.4438 60.352C65.534 60.3971 65.6243 60.4422 65.7145 60.4874C67.5647 61.1191 69.7308 61.6606 71.1297 62.8339C75.5972 66.6245 77.673 72.9874 75.0106 80.7942C71.3102 91.6245 61.3824 97.5812 51.3643 96.9495C47.0773 96.6787 42.7903 95.2346 38.9546 92.4819C38.8643 92.3917 37.3752 91.3087 36.7885 90.7671C32.7272 87.157 29.9293 82.0126 29.2073 76.1011C28.7109 72.0397 29.2976 68.1137 30.6965 64.5939C31.1929 63.2852 33.0882 60.5325 33.2235 60.3069C35.8409 56.426 39.3156 53.6733 43.5575 51.8231C44.0087 51.6426 48.2506 50.1083 51.9059 50.4242C52.5376 50.4693 53.1694 50.6498 53.756 50.8303C56.7344 51.7328 59.2163 53.8538 61.247 56.5614C61.7434 57.2383 62.7813 58.3213 63.2777 58.8628C66.0755 53.3123 68.1513 46.5884 67.3391 39.3231C66.4817 31.8773 61.9239 24.8375 57.8625 20.0993C57.8625 20.0993 57.8625 20.0542 57.8174 20.0542L52.7633 15L23.4763 44.287C7.27589 60.4874 7.27589 86.7058 23.4763 102.906Z" fill="url(#paint1_linear_2004_167)"/>
<defs>
<linearGradient id="paint0_linear_2004_167" x1="52.326" y1="0" x2="52.326" y2="126.326" gradientUnits="userSpaceOnUse">
<stop offset="0.33" stop-color="#E54A4A"/>
<stop offset="1" stop-color="#541311"/>
</linearGradient>
<linearGradient id="paint1_linear_2004_167" x1="52.7634" y1="15" x2="76.7759" y2="107.851" gradientUnits="userSpaceOnUse">
<stop stop-color="#FFC97C"/>
<stop offset="1" stop-color="#E13814"/>
</linearGradient>
</defs>
</svg>
