<svg viewBox="0 0 83 101" fill="none" xmlns="http://www.w3.org/2000/svg">
<path d="M17.9265 61.0559C18.6486 66.9674 21.4464 72.0667 25.5078 75.722C26.0944 76.2635 27.5836 77.3916 27.6738 77.4368C31.5096 80.1895 35.7966 81.6335 40.0836 81.9043C50.1468 82.536 60.0294 76.5793 63.7298 65.749C66.3922 57.9422 64.3164 51.5794 59.8489 47.7887C58.4049 46.5703 56.2839 46.0739 54.4338 45.4422C54.3435 45.397 54.2533 45.3519 54.163 45.3068C53.441 45.036 52.8543 44.6299 52.3128 44.1335C52.3128 44.1335 52.1774 43.9981 51.9969 43.8176C51.5005 43.2761 50.5078 42.1479 49.9663 41.5162C47.9356 38.8086 45.4536 36.6877 42.4753 35.7851C41.8886 35.6046 41.2569 35.4241 40.6251 35.379C36.9699 35.0631 32.728 36.5523 32.2767 36.7779C28.08 38.6281 24.6052 41.3808 21.9428 45.2617C21.7623 45.4873 19.9121 48.24 19.4157 49.5487C18.0168 53.0685 17.4302 56.9945 17.9265 61.0559Z" fill="url(#paint0_linear_2002_180)"/>
<path d="M12.1503 87.9061C20.2279 95.9838 30.8326 100.045 41.4373 100.045C52.042 100.045 62.6467 95.9838 70.7243 87.9061C86.9246 71.7058 86.9246 45.4874 70.7243 29.3321L61.5636 20.1715C63.4589 29.1516 59.2171 38.2671 54.1178 45.352C54.208 45.3971 54.2983 45.4422 54.3885 45.4874C56.2387 46.1191 58.4048 46.6606 59.8037 47.8339C64.2712 51.6245 66.347 57.9874 63.6846 65.7942C59.9842 76.6245 50.0564 82.5812 40.0384 81.9495C35.7514 81.6787 31.4644 80.2346 27.6286 77.4819C27.5384 77.3917 26.0492 76.3087 25.4625 75.7671C21.4012 72.157 18.6033 67.0126 17.8813 61.1011C17.3849 57.0397 17.9716 53.1137 19.3705 49.5939C19.8669 48.2852 21.7622 45.5325 21.8976 45.3069C24.5149 41.426 27.9896 38.6733 32.2315 36.8231C32.6828 36.6426 36.9246 35.1083 40.5799 35.4242C41.2116 35.4693 41.8434 35.6498 42.4301 35.8303C45.4084 36.7328 47.8903 38.8538 49.921 41.5614C50.4174 42.2383 51.4553 43.3213 51.9517 43.8628C54.7496 38.3123 56.8254 31.5884 56.0131 24.3231C55.1557 16.8773 50.5979 9.83754 46.5366 5.09928C46.5366 5.09928 46.5366 5.05415 46.4914 5.05415L41.4373 0L12.1503 29.287C-4.05009 45.4874 -4.05009 71.7058 12.1503 87.9061Z" fill="url(#paint1_linear_2002_180)"/>
<defs>
<linearGradient id="paint0_linear_2002_180" x1="41.4373" y1="0" x2="41.4373" y2="100.045" gradientUnits="userSpaceOnUse">
<stop offset="0.33" stop-color="#E54A4A"/>
<stop offset="1" stop-color="#541311"/>
</linearGradient>
<linearGradient id="paint1_linear_2002_180" x1="41.4372" y1="-9.34619e-07" x2="65.4498" y2="92.8507" gradientUnits="userSpaceOnUse">
<stop stop-color="#FFC97C"/>
<stop offset="1" stop-color="#E13814"/>
</linearGradient>
</defs>
</svg>
